<svg xmlns="http://www.w3.org/2000/svg" viewBox="0 0 48 48" width="1em" height="1em">
    <path style=" stroke:none;fill-rule:nonzero;fill:rgb(44.705883%,49.019608%,52.549022%);fill-opacity:1;" d="M 34.398438 29.851562 L 34.398438 43.5 L 8.398438 43.5 L 8.398438 29.851562 C 8.398438 29.492188 8.109375 29.199219 7.75 29.199219 L 5.148438 29.199219 C 4.792969 29.199219 4.5 29.492188 4.5 29.851562 L 4.5 46.101562 C 4.5 46.816406 5.082031 47.398438 5.800781 47.398438 L 37 47.398438 C 37.71875 47.398438 38.300781 46.816406 38.300781 46.101562 L 38.300781 29.851562 C 38.300781 29.492188 38.007812 29.199219 37.648438 29.199219 L 35.050781 29.199219 C 34.691406 29.199219 34.398438 29.492188 34.398438 29.851562 Z M 34.398438 29.851562 " />
    <path style=" stroke:none;fill-rule:nonzero;fill:rgb(44.705883%,49.019608%,52.549022%);fill-opacity:1;" d="M 12.300781 37 L 30.5 37 L 30.5 40.898438 L 12.300781 40.898438 Z M 12.300781 37 " />
    <path style=" stroke:none;fill-rule:nonzero;fill:rgb(53.725493%,46.666667%,41.960785%);fill-opacity:1;" d="M 12.40625 29.539062 L 30.5 31.484375 L 30.082031 35.363281 L 11.988281 33.414062 Z M 12.40625 29.539062 " />
    <path style=" stroke:none;fill-rule:nonzero;fill:rgb(89.019608%,37.64706%,0.392157%);fill-opacity:1;" d="M 40.730469 0.601562 L 43.503906 18.585938 L 39.648438 19.179688 L 36.875 1.195312 Z M 40.730469 0.601562 " />
    <path style=" stroke:none;fill-rule:nonzero;fill:rgb(80.000001%,40.000001%,10.980392%);fill-opacity:1;" d="M 29.8125 3.507812 L 38.691406 19.390625 L 35.285156 21.296875 L 26.40625 5.410156 Z M 29.8125 3.507812 " />
    <path style=" stroke:none;fill-rule:nonzero;fill:rgb(71.372551%,42.352942%,21.176471%);fill-opacity:1;" d="M 19.453125 11.714844 L 34.398438 22.09375 L 32.175781 25.296875 L 17.226562 14.921875 Z M 19.453125 11.714844 " />
    <path style=" stroke:none;fill-rule:nonzero;fill:rgb(62.352943%,44.313726%,31.764707%);fill-opacity:1;" d="M 14.769531 20.382812 L 31.894531 26.542969 L 30.574219 30.214844 L 13.449219 24.054688 Z M 14.769531 20.382812 " />
</svg>